#!OML:ASF Y:\EmotionMaleHayes\Project 1\Capture day 1\Session 1\Male1.ASF
:FULLY-SPECIFIED
:DEGREES
2847
root -28.5617 16.8438 2.63176 1108.43 97.1559 -327.472
lowerback 9.50058 1.69803 2.71334
upperback 1.10591 2.68356 1.87237
thorax -4.14157 1.32358 0.0728847
lowerneck -17.1102 -9.19505 -5.29188
upperneck 18.4036 -12.076 3.90956
head 9.15958 -5.57587 0.597104
rclavicle -5.98839e-015 -2.50469e-014
rhumerus -27.8773 5.84996 -79.1525
rradius 40.8929
rwrist -4.56699
rhand -8.32008 -31.0465
rfingers 7.12502
rthumb 17.6008 -60.2698
lclavicle -5.98839e-015 -2.50469e-014
lhumerus -40.6285 -6.66358 87.4572
lradius 34.714
lwrist -1.69012
lhand -19.8079 -21.9555
lfingers 7.12502
lthumb 6.52527 7.92397
rfemur 12.6328 -12.4217 20.7847
rtibia 5.23925
rfoot -18.3981 -1.67628
rtoes 16.0819
lfemur -1.36996 -3.78325 -0.408706
ltibia 28.2904
lfoot -15.3145 1.50189
ltoes -8.24605
2848
root -28.5663 16.8466 2.65659 1104.3 97.6919 -331.43
lowerback 9.38894 1.51227 2.3971
upperback 1.3724 2.40021 1.9311
thorax -3.82179 1.19649 0.35426
lowerneck -17.3066 -9.01797 -5.28069
upperneck 18.3012 -11.8178 3.89721
head 9.14533 -5.45554 0.621758
rclavicle 1.85118e-015 2.36554e-014
rhumerus -27.5717 6.16509 -79.4111
rradius 40.9093
rwrist -4.64543
rhand -8.65409 -30.6968
rfingers 7.12502
rthumb 17.2794 -59.9486
lclavicle 1.85118e-015 2.36554e-014
lhumerus -40.3619 -6.65583 87.6868
lradius 34.5797
lwrist -2.10044
lhand -20.7213 -21.6709
lfingers 7.12502
lthumb 5.64344 8.23393
rfemur 13.0883 -12.6275 20.6135
rtibia 4.86409
rfoot -18.4212 -2.1271
rtoes 15.9947
lfemur -1.61107 -3.7306 -0.931091
ltibia 28.7459
lfoot -16.2651 2.15273
ltoes -9.23496
2849
root -28.5765 16.8372 2.66725 1105.58 97.2427 -330.483
lowerback 9.1402 1.69022 2.39093
upperback 1.29241 2.62258 1.88491
thorax -3.7624 1.30494 0.28938
lowerneck -17.4581 -8.83399 -5.33383
upperneck 18.4038 -11.5743 4.02342
head 9.20839 -5.32614 0.698563
rclavicle -4.21423e-014 -1.43125e-014
rhumerus -27.6324 6.45892 -79.8377
rradius 41.0639
rwrist -4.75154
rhand -8.60129 -31.0787
rfingers 7.12502
rthumb 17.3302 -60.3261
lclavicle -4.21423e-014 -1.43125e-014
lhumerus -40.3835 -6.49863 87.6598
lradius 34.5794
lwrist -1.87336
lhand -19.5569 -20.5604
lfingers 7.12502
lthumb 6.76761 9.31143
rfemur 12.4551 -12.567 20.589
rtibia 5.22558
rfoot -18.4013 -1.75668
rtoes 16.3372
lfemur -1.9202 -2.5827 -1.21441
ltibia 29.033
lfoot -17.1109 2.53649
ltoes -8.87638
2850
root -28.5679 16.8424 2.67721 1106.59 97.366 -329.485
lowerback 9.01763 1.65414 2.59379
upperback 1.32306 2.59513 1.97774
thorax -3.65811 1.29164 0.279925
lowerneck -17.6158 -8.64384 -5.42114
upperneck 18.4643 -11.3016 4.10807
head 9.25539 -5.19152 0.772049
rclavicle 2.27981e-014 3.97569e-016
rhumerus -27.6691 6.83465 -80.1957
rradius 41.213
rwrist -4.94948
rhand -8.39139 -31.3756
rfingers 7.12502
rthumb 17.5322 -60.6051
lclavicle 2.27981e-014 3.97569e-016
lhumerus -40.5762 -6.78671 88.0951
lradius 35.0182
lwrist -0.431617
lhand -18.6746 -16.9237
lfingers 7.12502
lthumb 7.61921 12.9191
rfemur 12.4957 -12.7524 20.7615
rtibia 5.16856
rfoot -18.4393 -1.6562
rtoes 16.3633
lfemur -1.99539 -1.63305 -1.13901
ltibia 29.2007
lfoot -17.5201 2.31847
ltoes -9.36854
2851
root -28.5727 16.846 2.68613 1108.77 97.4171 -327.298
lowerback 9.08075 1.68382 2.94584
upperback 1.30456 2.6784 2.061
thorax -3.6997 1.32919 0.156986
lowerneck -17.7159 -8.49164 -5.41728
upperneck 18.4784 -11.0859 4.10122
head 9.26688 -5.08965 0.796262
rclavicle -1.6114e-014 -1.55052e-014
rhumerus -27.7803 6.94692 -80.4916
rradius 41.2516
rwrist -4.97073
rhand -8.16024 -31.2834
rfingers 7.12502
rthumb 17.7547 -60.4928
lclavicle -1.6114e-014 -1.55052e-014
lhumerus -40.606 -6.77309 88.1504
lradius 35.0129
lwrist 0.0870589
lhand -17.5637 -17.0014
lfingers 7.12502
lthumb 8.69139 12.7996
rfemur 12.3951 -12.9297 21.0557
rtibia 5.2364
rfoot -18.3931 -1.45534
rtoes 16.2388
lfemur -2.09267 -0.652801 -0.966071
ltibia 29.3802
lfoot -17.7902 2.0983
ltoes -11.3549
2852
root -28.585 16.8447 2.70108 1109.75 97.7733 -326.356
lowerback 9.16827 1.64184 3.31114
upperback 1.255 2.66872 2.11105
thorax -3.78623 1.31885 0.0019899
lowerneck -17.8643 -8.38134 -5.12031
upperneck 18.553 -10.9425 3.80112
head 9.27524 -5.03176 0.663881
rclavicle 2.57178e-015 -1.17283e-014
rhumerus -27.961 6.89863 -80.8121
rradius 41.2796
rwrist -4.90673
rhand -8.13751 -31.3966
rfingers 7.12502
rthumb 17.7765 -60.6041
lclavicle 2.57178e-015 -1.17283e-014
lhumerus -40.6037 -6.91063 88.1452
lradius 34.5334
lwrist -0.827561
lhand -17.8404 -20.1625
lfingers 7.12502
lthumb 8.42438 9.64944
rfemur 12.3184 -13.0652 21.5175
rtibia 5.17001
rfoot -18.4132 -1.57203
rtoes 16.245
lfemur -2.45476 0.0660175 -0.799294
ltibia 29.7177
lfoot -18.1356 1.56741
ltoes -12.2287
2853
root -28.5835 16.8476 2.69967 1110.01 97.7087 -326.098
lowerback 9.11786 1.70631 3.49415
upperback 1.26303 2.7672 2.0641
thorax -3.73665 1.36547 -0.158563
lowerneck -17.9688 -8.27059 -4.77612
upperneck 18.6177 -10.8038 3.45914
head 9.26798 -4.97855 0.511331
rclavicle 4.82053e-015 1.98785e-016
rhumerus -28.1123 6.96395 -81.1437
rradius 41.3554
rwrist -4.96601
rhand -8.02537 -31.6757
rfingers 7.12502
rthumb 17.8844 -60.8734
lclavicle 4.82053e-015 1.98785e-016
lhumerus -40.5805 -6.8084 88.0482
lradius 34.2804
lwrist -0.958952
lhand -17.4471 -21.4649
lfingers 7.12502
lthumb 8.80388 8.33143
rfemur 12.2761 -13.2466 21.3918
rtibia 5.27149
rfoot -18.4139 -1.27712
rtoes 16.3072
lfemur -2.47591 0.620624 -1.14987
ltibia 29.8489
lfoot -18.612 1.28748
ltoes -12.3474
